<svg width="309" height="100" viewBox="0 0 309 100" fill="none" xmlns="http://www.w3.org/2000/svg">
<path d="M59.1725 0.0765022C58.5127 2.23345 57.8529 4.38282 57.1928 6.53977C53.8398 17.4775 50.4865 28.4152 47.1103 39.353C46.926 39.9572 46.9568 40.1256 47.6552 40.2021C51.2309 40.5997 54.7911 41.0663 58.3592 41.487C58.766 41.5329 59.0038 41.6857 59.2186 42.0301C61.8966 46.451 64.5747 50.8795 67.291 55.2777C67.6132 55.7978 67.291 56.0349 67.0455 56.3409C62.1575 62.4447 57.2696 68.5484 52.3818 74.6521C45.8287 82.8285 39.2834 91.0127 32.723 99.1893C32.4927 99.4799 32.3316 99.87 31.7868 100C32.1551 98.7992 32.4927 97.6825 32.8456 96.5657C36.6056 84.4653 40.3576 72.3727 44.1408 60.2799C44.348 59.6298 44.2788 59.4616 43.5805 59.3851C40.0891 58.995 36.6132 58.536 33.1295 58.1308C32.5771 58.0694 32.2394 57.8934 31.9403 57.3963C29.3466 53.0824 26.7223 48.7915 24.0827 44.5006C23.7912 44.0264 23.8064 43.7356 24.1671 43.2768C35.5927 29.0884 46.9951 14.8921 58.3977 0.688264C58.5894 0.451184 58.789 0.229505 58.9884 0C59.0575 0.0381247 59.1112 0.0535264 59.1725 0.0765022Z" fill="#141820"/>
<path d="M39.1855 94.9368C41.9403 91.495 44.6336 88.137 47.3192 84.7638C47.6414 84.3586 48.0712 84.4351 48.4701 84.4045C53.9336 83.9455 59.044 82.3622 63.6632 79.4327C73.3392 73.306 78.9637 64.5787 80.061 53.1746C81.5726 37.4945 72.1115 22.8854 57.1793 17.6076C56.5577 17.3859 56.366 17.1948 56.5886 16.5138C57.54 13.5691 58.4455 10.6015 59.3125 7.6338C59.5121 6.96068 59.7654 6.86879 60.4021 7.09829C71.6971 11.1216 80.3067 18.3266 85.9312 28.8667C95.1006 46.0688 92.3 66.8046 78.9024 81.0465C71.3825 89.0471 62.0825 93.7284 51.1327 95.1052C47.2655 95.5869 43.3983 95.518 39.5384 95.0438C39.4619 95.0438 39.3927 95.0057 39.1855 94.9368Z" fill="#141820"/>
<path d="M51.8166 5.10776C50.6041 6.62239 49.4762 8.03729 48.3483 9.44462C46.8212 11.3493 45.2865 13.2384 43.7749 15.1507C43.4758 15.5332 43.1457 15.7168 42.6622 15.7627C27.3696 17.2006 15.0538 27.8172 11.8464 42.7934C9.36798 54.3659 12.3376 64.6689 20.3101 73.4651C24.1006 77.6489 28.7507 80.6166 34.0835 82.5059C34.5285 82.6665 34.682 82.7965 34.5133 83.3091C33.5235 86.3913 32.5643 89.4815 31.6357 92.5794C31.4594 93.1682 31.2061 93.1222 30.7457 92.9541C19.4276 88.8927 10.8796 81.6109 5.23201 71.0327C0.9504 63.0169 -0.75323 54.4118 0.305775 45.4169C2.16264 29.5611 10.2656 17.7131 24.2695 9.98771C32.3495 5.52863 41.1199 4.02183 50.305 4.89365C50.75 4.94717 51.195 5.02368 51.8166 5.10776Z" fill="#141820"/>
<path d="M293.439 73.2135C289.87 73.2135 286.365 73.206 282.849 73.2211C282.282 73.2211 282.32 72.8159 282.221 72.5099C281.099 68.9991 279.972 65.4959 278.905 61.9698C278.72 61.358 278.452 61.2126 277.854 61.2126C272.598 61.2356 267.343 61.2356 262.077 61.2126C261.502 61.2126 261.256 61.358 261.081 61.9163C259.99 65.4654 258.847 68.9991 257.758 72.5404C257.604 73.053 257.388 73.2211 256.836 73.2211C253.554 73.1906 250.261 73.206 246.854 73.206C247.323 71.8443 247.758 70.5595 248.204 69.2743C253.384 54.4128 258.564 39.559 263.721 24.6975C263.951 24.0395 264.227 23.8178 264.939 23.8254C268.485 23.8714 272.023 23.856 275.567 23.833C276.089 23.833 276.334 23.9554 276.519 24.4831C282.097 40.4998 287.692 56.5162 293.285 72.5253C293.345 72.7394 293.376 72.9611 293.439 73.2135ZM269.974 33.2564C269.881 33.4323 269.805 33.547 269.767 33.677C267.763 40.0638 265.777 46.4581 263.751 52.8373C263.543 53.4796 263.812 53.4491 264.273 53.4491C268.062 53.4415 271.861 53.4339 275.651 53.4569C276.274 53.4569 276.395 53.365 276.19 52.7224C274.316 46.8482 272.482 40.9664 270.633 35.0843C270.44 34.488 270.342 33.853 269.974 33.2564Z" fill="#141820"/>
<path d="M176.998 44.8152C176.998 43.5071 176.991 42.2068 176.998 40.899C177.006 39.8434 177.036 38.7802 177.059 37.7248C178.141 37.5334 179.232 37.6864 180.314 37.6405C180.451 37.6329 180.598 37.6559 180.734 37.6329C181.21 37.564 181.357 37.7478 181.342 38.2219C181.304 39.1703 181.335 40.1264 181.335 41.075C181.335 51.5153 181.335 61.9559 181.335 72.3966C181.335 79.6019 177.067 84.7111 169.916 85.9886C165.58 86.761 161.345 86.5087 157.371 84.451C154.339 82.8755 152.123 80.5732 151.201 77.1849C151.046 76.6264 151.072 76.3969 151.753 76.4274C152.936 76.4812 154.116 76.4428 155.299 76.4428C155.545 76.4428 155.775 76.3969 155.912 76.7183C157.333 80.1142 160.154 81.6439 163.587 82.2405C166.147 82.6842 168.688 82.493 171.104 81.4758C174.696 79.9611 176.552 77.177 176.73 73.3451C176.844 70.8592 176.753 68.3657 176.753 65.6505C176.008 67.1419 175.248 68.3887 174.227 69.4519C168.052 75.8311 157.277 74.676 152.46 67.1114C149.995 63.2411 149.283 58.9272 149.397 54.4297C149.488 51.0106 150.172 47.7294 151.768 44.6698C156.365 35.8585 167.216 35.2464 172.87 39.8128C173.721 40.5013 174.496 41.2661 175.172 42.1382C175.818 42.9719 176.355 43.8821 176.998 44.8152ZM176.76 55.6C176.753 52.7086 176.37 50.0928 175.202 47.6529C173.247 43.5455 170.053 41.1361 165.387 41.098C160.762 41.0596 157.5 43.3541 155.697 47.4769C153.427 52.6629 153.427 57.9864 155.704 63.18C157.432 67.1114 160.57 69.36 164.944 69.4978C169.248 69.6278 172.51 67.7004 174.665 64.0058C176.208 61.3518 176.722 58.4222 176.76 55.6Z" fill="#141820"/>
<path d="M308.872 48.554C308.872 56.5011 308.864 64.4481 308.887 72.4028C308.887 73.0454 308.748 73.2441 308.074 73.2365C305.149 73.1984 302.226 73.206 299.303 73.2289C298.72 73.2365 298.482 73.1524 298.482 72.4718C298.505 56.4935 298.505 40.5074 298.49 24.5291C298.49 23.9709 298.649 23.8408 299.196 23.8408C302.172 23.8638 305.156 23.879 308.135 23.833C308.793 23.8254 308.895 24.0244 308.895 24.621C308.872 32.6062 308.872 40.5763 308.872 48.554Z" fill="#141820"/>
<path d="M194.048 43.8184C195.054 42.151 196.166 40.6823 197.693 39.5351C202.903 35.6418 211.49 36.3227 215.565 40.9883C217.789 43.5354 218.658 46.5874 218.673 49.8916C218.704 57.3951 218.673 64.8908 218.696 72.3942C218.696 73.0368 218.557 73.2739 217.868 73.2358C216.832 73.1744 215.788 73.1898 214.745 73.2279C214.182 73.2509 214.038 73.0749 214.046 72.5243C214.068 69.1665 214.061 65.8088 214.061 62.4508C214.061 58.4199 214.152 54.389 214.038 50.3582C213.846 43.4973 209.066 40.3612 202.797 41.2638C197.693 41.998 194.37 45.7459 194.134 50.8859C193.889 56.2554 194.079 61.6325 194.041 67.002C194.026 68.8224 194.018 70.6428 194.048 72.4632C194.056 73.0138 193.957 73.2663 193.326 73.2358C192.207 73.1822 191.08 73.2052 189.953 73.2279C189.56 73.2358 189.36 73.1285 189.413 72.7157C189.431 72.5778 189.413 72.4326 189.413 72.2948C189.413 56.4543 189.421 40.6137 189.398 24.773C189.398 24.0769 189.492 23.7711 190.29 23.8398C191.265 23.9241 192.26 23.9087 193.235 23.8398C193.942 23.7863 194.041 24.0618 194.041 24.6813C194.018 30.7543 194.026 36.8275 194.026 42.9006C194.048 43.2067 194.048 43.5127 194.048 43.8184Z" fill="#141820"/>
<path d="M102.845 48.4627C102.845 40.5386 102.853 32.622 102.83 24.6979C102.83 24.0021 102.983 23.7955 103.689 23.8412C104.756 23.9101 105.822 23.8872 106.897 23.849C107.403 23.8336 107.58 23.9483 107.564 24.4914C107.526 25.9141 107.549 27.3444 107.549 28.7747C107.549 41.8467 107.557 54.9184 107.526 67.9901C107.526 68.7624 107.733 68.9308 108.485 68.9308C116.074 68.9003 123.67 68.9154 131.259 68.9154C132.349 68.9154 132.349 68.9154 132.349 70.0476C132.349 70.7742 132.272 71.5084 132.364 72.2275C132.479 73.1301 132.103 73.2677 131.298 73.2523C128.32 73.2066 125.335 73.2372 122.358 73.2372C116.204 73.2372 110.043 73.2142 103.889 73.2601C102.968 73.2677 102.822 72.9847 102.83 72.1586C102.853 64.2498 102.845 56.3563 102.845 48.4627Z" fill="#141820"/>
<path d="M228.216 54.0168C228.216 50.07 228.201 46.1233 228.232 42.1765C228.239 41.5493 228.085 41.3733 227.449 41.4039C226.16 41.4574 224.863 41.4039 223.566 41.4269C223.075 41.4347 222.852 41.3428 222.882 40.7921C222.928 39.9279 222.92 39.0558 222.882 38.1916C222.867 37.7479 223.014 37.6179 223.449 37.6255C224.825 37.6485 226.205 37.6025 227.586 37.6485C228.13 37.6636 228.224 37.4879 228.224 36.9908C228.201 34.4743 228.232 31.9502 228.194 29.4337C228.186 28.8293 228.361 28.6917 228.936 28.7147C230.005 28.7606 231.079 28.7606 232.145 28.7147C232.69 28.6917 232.788 28.8677 232.781 29.3724C232.758 31.8889 232.788 34.4129 232.75 36.9294C232.743 37.5336 232.92 37.6636 233.495 37.6485C235.374 37.6101 237.261 37.656 239.143 37.6179C239.703 37.6101 239.87 37.7709 239.832 38.314C239.787 39.0634 239.779 39.8284 239.832 40.578C239.878 41.2128 239.711 41.4498 239.019 41.4269C237.14 41.3733 235.253 41.4269 233.371 41.3963C232.912 41.3887 232.75 41.4958 232.758 41.9853C232.773 49.4275 232.766 56.8774 232.773 64.3198C232.773 65.0157 232.849 65.7193 233.026 66.3925C233.518 68.2512 234.685 69.2455 236.61 69.3604C237.563 69.4139 238.52 69.3755 239.473 69.3374C239.87 69.322 240.017 69.4139 240.002 69.8345C239.972 70.7829 239.987 71.739 239.994 72.6876C239.994 72.9857 239.994 73.2077 239.579 73.2458C237.646 73.4294 235.704 73.5364 233.786 73.1617C230.557 72.5267 228.822 70.5612 228.384 67.1651C228.262 66.2243 228.201 65.2757 228.201 64.3198C228.224 60.9007 228.216 57.4589 228.216 54.0168Z" fill="#141820"/>
<path d="M138.468 55.3615C138.468 49.7092 138.476 44.0567 138.453 38.3966C138.453 37.7772 138.592 37.5783 139.236 37.6088C140.272 37.6702 141.315 37.6548 142.359 37.6088C142.941 37.5859 143.119 37.7389 143.111 38.3355C143.081 41.441 143.096 44.5463 143.096 47.6594C143.096 55.8895 143.088 64.1196 143.111 72.3495C143.111 73.038 142.957 73.2751 142.245 73.237C141.239 73.1756 140.219 73.1834 139.205 73.237C138.615 73.2675 138.453 73.084 138.453 72.4949C138.476 66.7813 138.468 61.0676 138.468 55.3615Z" fill="#141820"/>
<path d="M143.848 27.4272C143.856 29.1178 142.536 30.4562 140.842 30.4946C139.175 30.5252 137.772 29.1711 137.757 27.5037C137.734 25.8288 139.084 24.4596 140.771 24.452C142.475 24.429 143.841 25.7523 143.848 27.4272Z" fill="#141820"/>
</svg>
