<svg width="402" height="100" viewBox="0 0 402 100" fill="none" xmlns="http://www.w3.org/2000/svg">
<path d="M0 32.5145C0.433886 31.4069 0.426286 30.2157 0.639302 29.0702C3.17372 15.3228 14.4917 3.76018 28.2907 0.85437C30.9166 0.300679 33.5655 0.0123461 36.2521 0.0199205C45.8194 0.0426438 55.3867 -0.0558261 64.9539 0.0502161C74.3234 0.156511 82.4444 3.54784 89.2338 9.95127C95.1932 15.573 98.7628 22.4847 100.057 30.5497C100.346 32.3325 100.46 34.1306 100.46 35.9364C100.453 45.511 100.529 55.0932 100.422 64.6678C100.315 73.9921 96.9133 82.0723 90.482 88.8398C84.8344 94.7726 77.8854 98.3081 69.787 99.6283C69.0182 99.7574 68.2115 99.6738 67.4732 100C55.8661 100 44.2591 100 32.6521 100C32.5987 99.7649 32.3932 99.8407 32.2486 99.8255C30.9242 99.6586 29.6076 99.4463 28.2983 99.1731C14.5069 96.2673 3.18917 84.6974 0.654501 70.9573C0.441484 69.8118 0.449084 68.6206 0.0151987 67.513C1.31393e-06 55.8443 0 44.1832 0 32.5145ZM32.7815 19.6016C32.7815 20.0874 32.7815 20.3909 32.7815 20.6865C32.7815 32.2416 32.7737 43.7888 32.8043 55.3436C32.8043 56.1251 32.5911 56.2616 31.8758 56.1705C30.4829 55.9885 29.0901 56.072 27.7201 56.3604C24.9037 56.9519 22.3617 58.0674 20.5198 60.3814C18.1145 63.416 18.7158 67.642 21.844 69.7434C23.1684 70.6311 24.6679 71.0409 26.2206 71.2684C29.7218 71.792 33.0782 71.4885 36.0085 69.2884C39.1065 66.959 40.9481 64.0229 40.8797 59.964C40.7655 53.4164 40.8493 46.8615 40.8493 40.3063C40.8493 40.0407 40.8493 39.7754 40.8493 39.5098C41.1386 39.5552 41.2374 39.707 41.3668 39.8435C44.7462 43.3412 48.1408 46.8388 51.5202 50.3362C52.3573 51.2012 52.3421 51.2087 53.1719 50.3819C56.6805 46.8842 60.1969 43.3942 63.7133 39.9044C63.9035 39.7145 64.0482 39.3959 64.4213 39.411C64.4213 39.6161 64.4213 39.7829 64.4213 39.9498C64.4213 53.4164 64.4289 66.8833 64.4061 80.3501C64.4061 81.0253 64.5352 81.2376 65.2508 81.2225C67.4276 81.1694 69.6043 81.1846 71.7811 81.2149C72.3444 81.2225 72.527 81.1088 72.527 80.5019C72.5118 60.4799 72.5118 40.4581 72.5042 20.4439C72.5042 20.2543 72.6413 19.9962 72.3368 19.8521C65.8673 26.2934 59.3978 32.7347 52.9434 39.1911C52.5402 39.5933 52.3421 39.6464 51.9237 39.2139C49.1988 36.3916 46.4511 33.5919 43.711 30.7923C40.1186 27.1051 36.5186 23.4254 32.7815 19.6016Z" fill="#141820"/>
<path d="M127.926 41.4506C128.269 41.4658 128.254 41.2383 128.322 41.1169C131.1 36.2005 135.294 33.6515 140.972 33.5452C143.468 33.4998 145.927 33.7348 148.286 34.6074C151.445 35.7756 153.706 37.9227 155.175 40.9197C155.258 41.0941 155.334 41.2686 155.426 41.4431C155.449 41.4812 155.517 41.5039 155.601 41.5569C156.659 39.7893 157.907 38.1732 159.52 36.8684C162.375 34.5695 165.716 33.6818 169.301 33.5679C172.11 33.4768 174.865 33.7654 177.452 34.979C181.897 37.058 184.205 40.7528 185.299 45.3429C185.841 47.619 186.069 49.933 186.069 52.2697C186.069 60.8505 186.061 69.4311 186.092 78.012C186.092 78.7934 185.872 78.9679 185.124 78.9527C182.057 78.9073 178.99 78.9148 175.915 78.9527C175.177 78.9603 174.941 78.8085 174.941 78.0195C174.971 70.0229 174.956 62.0264 174.964 54.0298C174.964 52.6111 174.872 51.2 174.568 49.8116C173.495 44.971 170.237 43.1501 165.678 43.6205C161.423 44.0605 158.622 46.8373 157.686 51.253C157.382 52.7022 157.283 54.1664 157.275 55.6307C157.268 63.1037 157.26 70.5693 157.291 78.0423C157.291 78.7782 157.116 78.9679 156.377 78.9527C153.279 78.9073 150.182 78.8997 147.084 78.9527C146.277 78.9679 146.148 78.7025 146.148 77.9817C146.171 69.5147 146.163 61.0402 146.163 52.5732C146.163 51.2606 146.034 49.9784 145.683 48.7039C144.846 45.6312 142.921 43.8558 139.678 43.5902C135.416 43.2488 131.823 44.7208 129.829 48.5598C128.893 50.3653 128.535 52.3227 128.528 54.3484C128.52 62.2314 128.512 70.1217 128.543 78.0044C128.543 78.7782 128.33 78.9603 127.576 78.9527C124.425 78.9073 121.274 78.9148 118.116 78.9527C117.476 78.9603 117.339 78.7707 117.339 78.1561C117.355 63.9078 117.355 49.6674 117.347 35.4191C117.347 34.8881 117.408 34.6377 118.047 34.6453C121.114 34.6831 124.182 34.6756 127.257 34.6453C127.843 34.6377 127.926 34.8503 127.919 35.3509C127.888 37.1261 127.911 38.9016 127.911 40.6844C127.926 40.9424 127.926 41.2004 127.926 41.4506Z" fill="#141820"/>
<path d="M391.695 72.8917C390.745 73.8779 389.983 74.9249 389.033 75.8203C386.14 78.5364 382.592 79.7047 378.719 79.9627C374.874 80.2207 371.145 79.6516 367.744 77.7474C363.549 75.4029 361.158 71.8977 361.06 66.9965C360.953 61.8073 363.055 57.8241 367.554 55.1612C370.598 53.363 373.97 52.5513 377.425 52.0125C381.877 51.3144 386.361 51.3068 390.851 51.3601C391.543 51.3677 391.702 51.2008 391.718 50.5027C391.816 45.0554 388.263 42.62 383.704 42.0357C378.605 41.3757 374.061 42.7793 370.163 46.1403C369.813 46.4438 369.654 46.4286 369.327 46.0949C367.774 44.5015 366.184 42.9386 364.608 41.3682C363.868 40.6322 363.868 40.6322 364.661 39.8962C367.835 36.9374 371.617 35.1773 375.849 34.2972C380.689 33.288 385.53 33.1135 390.309 34.5019C397.267 36.5276 400.494 40.8066 401.447 47.9839C401.682 49.7516 401.69 51.527 401.69 53.3022C401.697 61.5492 401.682 69.7887 401.713 78.0355C401.713 78.7942 401.5 78.946 400.783 78.9384C397.997 78.8929 395.206 78.9005 392.419 78.9384C391.816 78.946 391.68 78.7639 391.687 78.1948C391.718 76.4272 391.695 74.6593 391.695 72.8917ZM387.564 59.0911C385.499 59.1441 383.438 59.2277 381.399 59.516C378.795 59.8877 376.259 60.4946 374.076 62.0726C372.827 62.9679 372.227 64.1894 372.174 65.6841C372.083 68.2029 373.704 70.2742 376.442 71.162C378.537 71.8371 380.674 71.7917 382.804 71.4806C386.33 70.9645 389.002 69.2727 390.332 65.8435C391.133 63.7799 391.072 61.6101 391.064 59.44C391.064 59.0381 390.821 59.0835 390.57 59.0835C389.565 59.0911 388.567 59.0911 387.564 59.0911Z" fill="#141820"/>
<path d="M227.999 71.9507C226.897 73.8094 225.572 75.4559 223.959 76.8821C221.826 78.756 219.301 79.6741 216.514 79.9094C212.771 80.2204 209.101 79.9548 205.729 78.0809C201.816 75.9111 199.678 72.4816 198.718 68.2256C198.293 66.3211 198.118 64.3942 198.118 62.4442C198.118 53.4766 198.126 44.5087 198.095 35.5335C198.095 34.7824 198.293 34.6231 199.017 34.6382C202.115 34.6839 205.213 34.6763 208.31 34.6382C209.032 34.6306 209.275 34.7597 209.275 35.5562C209.237 43.0522 209.237 50.5481 209.268 58.0516C209.275 60.2138 209.397 62.3761 210.076 64.4623C211.72 69.5228 214.992 70.3802 219.065 69.9326C223.181 69.4774 226.714 66.435 227.338 60.8738C227.452 59.8798 227.482 58.886 227.474 57.8847C227.467 50.4115 227.474 42.9459 227.459 35.4729C227.459 34.8584 227.558 34.6306 228.252 34.6382C231.433 34.6839 234.615 34.6839 237.796 34.6382C238.487 34.6306 238.586 34.8584 238.586 35.4729C238.571 49.6907 238.571 63.9086 238.586 78.1264C238.586 78.7942 238.396 78.9459 237.758 78.9383C234.744 78.9078 231.73 78.9078 228.715 78.9383C228.128 78.9459 227.968 78.7863 227.983 78.2024C228.021 76.1158 227.999 74.0372 227.999 71.9507Z" fill="#141820"/>
<path d="M261.124 70.0325C261.618 70.0325 261.915 70.0325 262.211 70.0325C269.914 70.0325 277.609 70.0403 285.311 70.0173C285.99 70.0173 286.218 70.1463 286.203 70.8672C286.157 73.3102 286.165 75.7532 286.195 78.196C286.203 78.7802 286.035 78.9319 285.448 78.9319C273.171 78.9168 260.902 78.9168 248.627 78.9319C248.009 78.9319 247.91 78.7196 247.918 78.1811C247.941 75.2068 247.941 72.2404 247.918 69.2665C247.918 68.8112 248.07 68.5075 248.374 68.1813C256.023 60.1468 263.657 52.0972 271.291 44.0474C271.398 43.9337 271.565 43.8502 271.565 43.6378C271.299 43.4328 270.988 43.5467 270.699 43.5467C263.779 43.5391 256.862 43.524 249.942 43.5618C249.174 43.5694 249.045 43.3419 249.06 42.6438C249.106 40.2008 249.098 37.758 249.06 35.315C249.053 34.7535 249.227 34.6396 249.759 34.6396C261.307 34.6548 272.859 34.6548 284.407 34.6396C284.924 34.6396 285.114 34.7308 285.106 35.3075C285.076 38.2814 285.083 41.2478 285.098 44.2221C285.098 44.624 284.954 44.8821 284.696 45.1552C276.887 53.3869 269.085 61.6264 261.124 70.0325Z" fill="#141820"/>
<path d="M317.372 56.702C317.539 48.03 320.941 41.0048 328.719 36.7787C336.82 32.3785 345.153 32.2419 353.342 36.832C354.758 37.6286 355.961 38.7059 357.111 39.8438C357.43 40.1549 357.491 40.3445 357.141 40.6937C354.818 42.9771 352.513 45.276 350.214 47.5824C349.872 47.9316 349.697 47.8859 349.385 47.5597C347.741 45.9057 345.93 44.4415 343.631 43.8573C340.153 42.9771 336.911 43.7586 334.033 45.7693C329.763 48.7509 328.089 53.0299 328.522 58.0677C328.965 63.1888 331.544 67.005 336.376 69.0534C340.624 70.8516 346.196 70.4039 349.651 66.2766C349.948 65.9201 350.092 65.9353 350.398 66.269C352.62 68.6818 354.856 71.0791 357.118 73.4615C357.468 73.8256 357.285 73.9924 357.004 74.2429C354.172 76.8074 350.809 78.3778 347.131 79.2198C338.311 81.2303 330.389 79.44 323.818 73.1047C319.695 69.1294 317.684 64.0765 317.38 58.3633C317.349 57.8172 317.372 57.2557 317.372 56.702Z" fill="#141820"/>
<path d="M306.85 56.8167C306.85 63.8953 306.835 70.9738 306.873 78.0524C306.88 78.8263 306.645 78.9477 305.946 78.9326C302.795 78.8947 299.644 78.9023 296.493 78.9326C295.867 78.9401 295.7 78.7808 295.7 78.1511C295.715 63.9104 295.715 49.6624 295.7 35.4217C295.7 34.8147 295.829 34.6251 296.478 34.6327C299.682 34.6706 302.894 34.6706 306.098 34.6327C306.728 34.6251 306.865 34.792 306.865 35.4065C306.842 42.5457 306.85 49.6851 306.85 56.8167Z" fill="#141820"/>
<path d="M308.388 19.7146C308.38 23.5005 305.313 26.3303 301.21 26.3303C297.253 26.3228 294.156 23.3866 294.148 19.6464C294.148 16.0503 297.299 12.8713 301.402 13.0003C305.404 13.1215 308.388 15.8832 308.388 19.7146Z" fill="#141820"/>
</svg>
