<svg width="362" height="100" viewBox="0 0 362 100" fill="none" xmlns="http://www.w3.org/2000/svg">
<path d="M54.0353 0C55.1384 0.364078 56.3025 0.318633 57.4286 0.485523C65.8817 1.73682 73.5204 4.91454 80.3681 9.99598C80.7409 10.2765 80.7789 10.4358 80.4669 10.8075C77.4464 14.3341 74.4487 17.8683 71.4662 21.4253C71.1314 21.8272 70.9487 21.8197 70.5455 21.5313C65.9425 18.24 60.8296 16.1694 55.2298 15.3731C48.3593 14.3947 41.7019 15.2595 35.4479 18.2779C24.1874 23.7234 17.4233 32.665 15.4451 44.9742C13.1399 59.331 20.6036 74.0744 33.7055 80.7636C46.3128 87.2027 58.6459 86.2849 70.4391 78.4734C70.9563 78.132 71.1542 78.1623 71.5422 78.6251C74.4867 82.144 77.4464 85.6403 80.4289 89.1215C80.7941 89.5462 80.6801 89.7131 80.2921 90.0012C74.3651 94.4077 67.7836 97.4261 60.5406 98.8898C49.6146 101.105 38.978 100.065 28.9275 95.2344C13.9236 88.0142 4.60303 76.1905 0.989094 59.9605C0.593456 58.1706 0.365242 56.3578 0.175022 54.5377C0.159824 54.3935 0.243411 54.1888 0 54.1357C0 51.36 0 48.5842 0 45.8084C0.235813 45.7476 0.152226 45.5506 0.175022 45.4065C0.334848 44.2233 0.45643 43.0402 0.654249 41.8646C2.41183 31.262 7.1215 22.1383 14.7529 14.5692C22.6656 6.72711 32.2141 2.0249 43.292 0.447397C44.2583 0.311058 45.2626 0.386802 46.1833 0.00757509C48.793 6.54869e-07 51.4178 0 54.0353 0Z" fill="#141820"/>
<path d="M337.243 60.1496C329.573 60.1496 321.904 60.1648 314.234 60.1345C313.429 60.1345 313.345 60.3087 313.527 61.052C315.597 69.5919 322.185 75.2192 331.004 75.9701C333.91 76.2203 336.787 76.1521 339.639 75.4924C344.013 74.4759 347.476 72.1478 349.963 68.4164C350.277 67.9536 350.482 67.8551 350.984 68.1508C353.388 69.5462 355.799 70.9114 358.236 72.2538C358.76 72.5422 358.798 72.7242 358.456 73.2246C353.752 80.1262 347.218 84.0472 338.94 85.1243C332.793 85.9206 326.714 85.6096 320.969 83.16C311.033 78.9128 305.151 71.3742 303.53 60.7185C302.555 54.287 303.105 47.9543 306.025 42.0462C310.445 33.1044 317.598 27.6894 327.565 26.1498C332.815 25.3383 338.018 25.5582 343.048 27.3935C349.902 29.8963 354.697 34.7122 358.031 41.0376C361.057 46.7863 361.878 52.9522 361.232 59.3609C361.171 59.9373 360.997 60.1799 360.328 60.1799C352.635 60.1421 344.935 60.1496 337.243 60.1496ZM351.364 51.4885C351.25 50.8664 351.166 50.3281 351.045 49.7896C350.118 45.6562 348.345 41.993 344.966 39.2705C339.29 34.697 332.838 34.0524 326.126 36.1306C319.135 38.2997 315.164 43.3657 313.565 50.3811C313.315 51.4809 313.337 51.4885 314.439 51.4885C326.402 51.4885 338.363 51.4885 350.323 51.4885C350.642 51.4885 350.976 51.4885 351.364 51.4885Z" fill="#141820"/>
<path d="M164.167 65.7845C166.738 67.2708 169.24 68.712 171.745 70.1529C172.672 70.6914 172.68 70.699 172.095 71.6546C168.04 78.2527 162.234 82.6287 154.717 84.4718C145.549 86.7091 136.807 85.5714 129.046 79.9138C121.849 74.673 117.839 67.5364 117.086 58.64C116.599 52.8382 117.261 47.1955 119.969 41.9929C124.557 33.1725 131.74 27.6967 141.699 26.1419C147.801 25.1865 153.751 25.7399 159.419 28.3415C164.79 30.8062 168.967 34.5755 171.791 39.7935C172.118 40.4078 172.148 40.7111 171.449 41.0979C169.081 42.3797 166.753 43.7449 164.433 45.1025C163.969 45.3754 163.787 45.3375 163.513 44.8444C160.203 38.9212 155.014 35.9255 148.326 35.5009C140.756 35.0156 134.661 37.8595 130.317 44.0862C127.243 48.4849 126.406 53.4601 127.159 58.6781C128.209 66.0195 132.211 71.3966 139.082 74.1118C146.911 77.2062 154.329 76.0609 160.758 70.3349C162.166 69.0609 163.237 67.4985 164.167 65.7845Z" fill="#141820"/>
<path d="M272.148 65.7785C274.871 67.3484 277.548 68.9183 280.258 70.458C280.744 70.7385 280.471 70.9584 280.319 71.2316C277.801 75.6606 274.263 79.0658 269.85 81.5989C264.182 84.8527 258.057 85.9295 251.588 85.3076C241.188 84.299 233.503 79.0963 228.407 70.109C225.537 65.0503 224.679 59.4912 224.967 53.7349C225.325 46.6134 227.804 40.3564 232.705 35.1005C238.252 29.1621 245.129 26.1361 253.255 25.7796C259.881 25.4913 266.016 26.9249 271.53 30.6715C275.099 33.0907 277.885 36.2003 279.871 40.0302C280.114 40.5006 280.091 40.7053 279.602 40.9783C277.176 42.3283 274.772 43.7162 272.368 45.1116C271.958 45.3467 271.783 45.377 271.507 44.8917C268.017 38.6726 262.553 35.6618 255.514 35.4721C247.366 35.2447 241.105 38.7029 237.262 45.8246C231.791 55.9645 235.421 70.3971 248.379 74.614C255.727 77.003 262.637 75.7363 268.556 70.4883C270.048 69.161 271.188 67.5532 272.148 65.7785Z" fill="#141820"/>
<path d="M100.414 50.0028C100.201 64.2079 95.0201 76.2972 84.7867 86.2324C84.3682 86.6419 84.1628 86.7101 83.7292 86.1869C80.7999 82.6603 77.8326 79.1715 74.8499 75.6905C74.5077 75.2886 74.5457 75.1141 74.9109 74.7425C82.8085 66.635 86.3084 56.9804 85.0149 45.7253C84.0942 37.7015 80.5717 30.8908 74.8805 25.1799C74.5609 24.8613 74.5001 24.7098 74.8119 24.3381C77.825 20.8115 80.8303 17.2773 83.8052 13.7203C84.178 13.2727 84.3834 13.3259 84.7563 13.69C93.4831 22.1234 98.6644 32.309 100.087 44.3601C100.3 46.2184 100.43 48.0991 100.414 50.0028Z" fill="#141820"/>
<path d="M285.789 42.4716C285.789 29.0098 285.797 15.5478 285.767 2.08597C285.767 1.25935 285.995 1.1076 286.772 1.12275C289.503 1.17603 292.236 1.16845 294.974 1.12275C295.696 1.1076 295.825 1.33509 295.825 2.00265C295.81 27.0152 295.81 52.0202 295.81 77.0327C295.81 79.1106 295.794 81.1964 295.817 83.2745C295.825 83.7977 295.718 83.9873 295.141 83.9797C292.243 83.9494 289.343 83.9494 286.438 83.9797C285.843 83.9873 285.774 83.7674 285.782 83.267C285.805 80.8777 285.789 78.4888 285.789 76.1074C285.789 64.898 285.789 53.681 285.789 42.4716Z" fill="#141820"/>
<path d="M208.318 36.3051C209.473 34.3181 210.737 32.445 212.419 30.8826C215.476 28.046 219.189 26.7265 223.282 26.3167C224.029 26.241 224.782 26.2334 225.534 26.1652C225.992 26.1271 226.099 26.3092 226.091 26.7341C226.076 29.8131 226.076 32.8923 226.091 35.9716C226.091 36.4342 226 36.5402 225.481 36.5326C220.301 36.4796 215.696 37.9662 212.099 41.8264C209.769 44.3217 208.873 47.4539 208.485 50.7683C208.325 52.1486 208.31 53.5365 208.31 54.9244C208.318 64.3288 208.303 73.7405 208.333 83.1449C208.333 83.8504 208.151 84.0021 207.464 83.987C204.681 83.9413 201.887 83.9564 199.103 83.9791C198.556 83.987 198.343 83.8882 198.343 83.2664C198.358 64.814 198.358 46.3617 198.343 27.9096C198.343 27.3484 198.465 27.1512 199.073 27.1588C201.94 27.1891 204.817 27.1891 207.685 27.1588C208.219 27.1512 208.333 27.3181 208.325 27.8109C208.303 30.64 208.318 33.4763 208.318 36.3051Z" fill="#141820"/>
<path d="M187.822 55.5701C187.822 64.7544 187.814 73.9389 187.837 83.1309C187.837 83.8285 187.647 83.9954 186.963 83.9879C184.147 83.95 181.333 83.9576 178.516 83.9803C177.984 83.9879 177.817 83.8667 177.817 83.3054C177.832 64.8228 177.832 46.3401 177.817 27.8575C177.817 27.2205 178.052 27.1523 178.594 27.1599C181.355 27.1826 184.116 27.1978 186.872 27.1523C187.617 27.1369 187.845 27.3114 187.837 28.0926C187.807 37.2544 187.822 46.4083 187.822 55.5701Z" fill="#141820"/>
<path d="M176.146 10.3608C176.123 6.6448 179.02 3.76273 182.643 3.60341C186.379 3.43652 189.552 6.74327 189.514 10.2472C189.476 13.971 186.66 16.8834 182.962 16.9061C179.076 16.9289 176.161 14.1304 176.146 10.3608Z" fill="#141820"/>
</svg>
