<svg width="391" height="100" viewBox="0 0 391 100" fill="none" xmlns="http://www.w3.org/2000/svg">
<path d="M0 48.6301C0.770254 46.1023 2.17044 43.8688 3.35279 41.5349C4.58986 39.1 4.52755 36.5022 4.34088 33.8812C4.26312 32.8034 4.24741 31.7255 4.32517 30.6553C4.48095 28.3756 5.49993 26.5532 7.24257 25.0954C8.33171 24.1804 9.48291 23.3507 10.6577 22.5519C12.8669 21.0476 14.4383 19.0702 15.4185 16.5966C15.8542 15.4953 16.3833 14.4253 16.8577 13.3318C18.1335 10.4007 20.444 8.8187 23.5478 8.27586C24.6137 8.08978 25.6717 7.86507 26.7375 7.70222C29.4447 7.28335 31.7395 6.07372 33.7232 4.21269C34.5089 3.47595 35.3645 2.80914 36.1814 2.10346C38.5231 0.0873965 41.1991 -0.432208 44.1631 0.350988C45.0187 0.575696 45.8821 0.762027 46.7147 1.04102C49.7952 2.0724 52.8524 2.057 55.9332 1.04884C57.3101 0.599176 58.7181 0.250246 60.1649 0.0639151C62.1955 -0.191848 63.9923 0.327761 65.6418 1.48311C66.6217 2.17314 67.5708 2.90988 68.411 3.75519C70.8616 6.21334 73.8256 7.53154 77.2483 7.95041C78.2597 8.07438 79.2553 8.35362 80.2513 8.57833C82.7249 9.14439 84.4597 10.6257 85.5567 12.8667C86.14 14.0607 86.7157 15.2628 87.198 16.5035C88.2094 19.0623 89.8274 21.1019 92.1224 22.6451C93.3048 23.4358 94.4405 24.2811 95.5297 25.2118C97.3501 26.7625 98.2602 28.7089 98.3615 31.0741C98.4314 32.5784 98.3225 34.0827 98.229 35.5794C98.058 38.185 98.6647 40.5732 99.9483 42.8221C100.524 43.8302 101.053 44.8692 101.59 45.8927C103.029 48.6301 103.021 51.3751 101.59 54.1125C101.201 54.8646 100.858 55.6557 100.399 56.3614C98.4547 59.3623 97.9101 62.6347 98.3068 66.1243C98.4314 67.2254 98.4002 68.3343 98.3225 69.4353C98.1434 72.0409 96.7589 73.933 94.744 75.4451C93.8104 76.143 92.8846 76.8487 91.9201 77.5076C89.7575 78.9733 88.2327 80.9275 87.2682 83.3392C86.8246 84.4403 86.3191 85.5181 85.8444 86.6113C84.5531 89.5737 82.2426 91.1866 79.0998 91.7216C78.0651 91.9001 77.0304 92.1172 75.996 92.28C73.2653 92.7065 70.9393 93.9083 68.9323 95.8004C68.1466 96.5371 67.2909 97.2039 66.4741 97.9096C64.1246 99.9181 61.4486 100.438 58.4924 99.6467C57.6447 99.4217 56.7733 99.2356 55.9408 98.9567C52.8603 97.9331 49.8031 97.9485 46.7223 98.9567C45.3766 99.3985 43.9918 99.7398 42.576 99.9259C40.4911 100.197 38.632 99.6699 36.9438 98.4525C35.9947 97.77 35.069 97.0567 34.2445 96.2271C31.7939 93.7689 28.8299 92.4583 25.4072 92.0397C24.3958 91.9155 23.4002 91.6362 22.4042 91.4115C19.9693 90.853 18.2346 89.3876 17.1454 87.1852C16.5309 85.9445 15.9476 84.6806 15.4342 83.3935C14.4461 80.9197 12.8826 78.9422 10.6731 77.438C9.45175 76.6083 8.2537 75.7398 7.1258 74.7781C5.32871 73.2506 4.42649 71.3274 4.30972 68.9932C4.23196 67.3417 4.39533 65.7054 4.45764 64.0693C4.52755 61.9369 4.1542 59.9052 3.13496 58.0053C1.98376 55.8417 0.739098 53.7249 0.00785056 51.3597C-1.41478e-06 50.4447 0 49.5373 0 48.6301ZM15.9398 49.9329C15.9398 69.451 31.8018 85.2545 51.4211 85.2156C70.6903 85.177 86.2646 69.7688 86.7157 50.8633C87.1825 31.0817 71.336 15.1853 52.1369 14.7742C32.0817 14.3399 15.9398 30.4848 15.9398 49.9329Z" fill="#141820"/>
<path d="M187.862 32.0345C193.83 21.9381 211.13 21.5891 216.684 32.4842C217.019 32.4377 217.082 32.1198 217.221 31.9027C220.62 26.9089 225.435 24.5901 231.41 24.4351C235.129 24.3422 238.677 24.9547 241.889 26.9089C246.697 29.8399 249.257 34.2445 250.144 39.6958C250.422 41.4096 250.493 43.131 250.486 44.8681C250.478 54.375 250.471 63.882 250.501 73.3889C250.501 74.1024 250.377 74.3506 249.592 74.3273C247.312 74.2652 245.032 74.2731 242.745 74.3195C242.069 74.3349 241.904 74.1488 241.912 73.482C241.937 63.7191 241.93 53.9564 241.93 44.1935C241.93 42.4254 241.686 40.6885 241.074 39.0212C239.455 34.6166 235.278 32.1895 230.306 32.5309C224.706 32.9106 220.496 36.4855 219.524 43.0303C219.291 44.6045 219.197 46.1863 219.197 47.7759C219.204 56.3214 219.189 64.8591 219.22 73.4045C219.22 74.1645 219.035 74.3427 218.288 74.3273C216.061 74.2731 213.837 74.2731 211.613 74.3273C210.851 74.3427 210.626 74.1645 210.626 73.3656C210.656 63.5719 210.648 53.7857 210.641 43.9918C210.641 41.4871 210.205 39.0754 208.842 36.9276C206.679 33.5234 203.414 32.2981 199.547 32.5617C193.417 32.9884 189.177 36.9586 188.204 43.0147C187.971 44.4727 187.855 45.9381 187.855 47.4192C187.862 56.0732 187.847 64.7273 187.878 73.3889C187.878 74.2031 187.629 74.3506 186.89 74.3349C184.666 74.2885 182.439 74.2885 180.216 74.3349C179.476 74.3506 179.273 74.1877 179.281 73.4199C179.306 58.8881 179.306 44.3563 179.306 29.8321C179.306 28.6689 179.337 27.5058 179.289 26.3426C179.266 25.7533 179.484 25.6525 180.013 25.6604C182.409 25.6836 184.805 25.6836 187.201 25.6604C187.716 25.6525 187.885 25.7689 187.878 26.3118C187.84 28.1418 187.862 29.9874 187.862 32.0345Z" fill="#141820"/>
<path d="M161.823 33.6729C161.823 31.2379 161.839 28.8108 161.815 26.3759C161.807 25.8485 161.916 25.6392 162.508 25.647C164.904 25.6856 167.3 25.678 169.696 25.647C170.271 25.6392 170.396 25.8252 170.396 26.3681C170.38 42.1173 170.38 57.8666 170.396 73.6237C170.396 74.1976 170.217 74.3294 169.672 74.3215C167.307 74.2905 164.942 74.2905 162.57 74.3215C161.979 74.3294 161.8 74.1822 161.807 73.5772C161.846 71.1501 161.823 68.723 161.823 66.0785C160.897 67.2884 160.111 68.343 159.193 69.2967C155.506 73.1197 150.94 75.0429 145.704 75.4539C138.532 76.0122 132.192 74.0579 126.894 69.103C120.274 62.9071 117.769 55.2145 118.912 46.3668C120.142 36.8521 125.33 29.9816 134.121 26.2517C141.324 23.1964 148.645 23.6074 155.522 27.663C158.058 29.1752 160.01 31.3233 161.823 33.6729ZM127.213 49.965C127.213 59.8519 134.627 67.3038 144.421 67.3738C154.347 67.4435 161.667 59.6501 161.862 50.3992C162.064 40.4424 154.363 32.5483 144.475 32.6026C134.658 32.6647 127.213 40.1013 127.213 49.965Z" fill="#141820"/>
<path d="M382.202 66.0389C380.857 67.9696 379.489 69.5517 377.863 70.8931C374.408 73.7469 370.386 75.158 365.961 75.4762C358.818 75.9955 352.516 74.0259 347.243 69.0864C341.128 63.3636 338.646 56.2838 339.074 48.033C339.69 36.1919 348.854 26.5921 358.983 24.8628C365.781 23.6996 372.215 24.5679 377.792 29.0345C379.464 30.3684 380.842 31.9813 382.202 33.9587C382.202 31.5316 382.202 29.3603 382.202 27.1967C382.202 25.6692 382.202 25.6692 383.767 25.6692C385.821 25.6692 387.873 25.7003 389.927 25.6536C390.604 25.6382 390.776 25.8243 390.776 26.4911C390.753 38.72 390.761 50.9565 390.761 63.1851C390.761 66.6514 390.745 70.1099 390.776 73.5762C390.783 74.1734 390.621 74.3362 390.013 74.3284C387.673 74.2973 385.338 74.2895 382.997 74.3284C382.382 74.3362 382.172 74.212 382.179 73.5452C382.227 71.1413 382.202 68.7296 382.202 66.0389ZM347.585 49.964C347.585 59.8584 354.991 67.3107 364.793 67.3725C374.72 67.4425 382.078 59.6491 382.235 50.3205C382.389 40.3871 374.689 32.5551 364.854 32.6094C355.021 32.6637 347.585 40.0925 347.585 49.964Z" fill="#141820"/>
<path d="M298.765 66.0632C297.334 68.1025 295.863 69.7775 294.097 71.1735C290.559 73.9649 286.473 75.3066 282.015 75.5005C271.033 75.9812 263.206 70.9949 258.158 61.488C255.947 57.3239 255.341 52.7643 255.668 48.1194C256.299 39.0235 260.554 31.9359 268.512 27.5235C276.704 22.9872 285.113 23.1036 293.195 28.1671C295.427 29.5631 297.124 31.5637 298.765 33.9287C298.765 32.5174 298.765 31.3388 298.765 30.1678C298.765 28.865 298.78 27.5546 298.758 26.2518C298.75 25.8253 298.859 25.6547 299.325 25.6625C301.807 25.6857 304.287 25.6857 306.762 25.6625C307.228 25.6547 307.377 25.8253 307.321 26.2518C307.306 26.3604 307.321 26.4768 307.321 26.5931C307.321 42.195 307.314 57.8046 307.337 73.4066C307.337 74.1277 307.205 74.3681 306.42 74.3449C304.11 74.283 301.8 74.2984 299.497 74.3373C298.874 74.3449 298.742 74.1512 298.75 73.5695C298.78 71.1502 298.765 68.7463 298.765 66.0632ZM298.765 50.0347C298.765 40.1014 291.351 32.6259 281.486 32.6184C271.615 32.6105 264.148 40.0857 264.148 49.9883C264.148 59.8441 271.608 67.3582 281.395 67.3582C291.313 67.3582 298.765 59.9295 298.765 50.0347Z" fill="#141820"/>
<path d="M324.834 33.2525C326.04 31.3761 327.278 29.6312 328.981 28.2587C332.038 25.7773 335.632 24.9244 339.474 24.808C339.91 24.7926 340.075 24.9166 340.075 25.3741C340.059 27.9562 340.044 30.5386 340.082 33.1207C340.09 33.7878 339.7 33.6792 339.312 33.6792C336.473 33.6636 333.796 34.2685 331.291 35.6564C327.62 37.6881 325.728 40.8676 325.093 44.9075C324.898 46.1404 324.834 47.3889 324.834 48.6374C324.842 56.8958 324.827 65.1545 324.857 73.4129C324.857 74.1575 324.687 74.3668 323.925 74.3435C321.731 74.2893 319.53 74.2814 317.334 74.3435C316.503 74.3668 316.245 74.1961 316.245 73.3043C316.278 57.8962 316.27 42.4804 316.27 27.0723C316.27 26.8165 316.293 26.5605 316.263 26.3047C316.215 25.847 316.346 25.6534 316.861 25.6609C319.312 25.6844 321.762 25.692 324.221 25.6609C324.827 25.6534 324.834 25.9402 324.834 26.3823C324.827 28.6619 324.834 30.9572 324.834 33.2525Z" fill="#141820"/>
<path d="M15.9397 49.9339C15.9397 30.4936 32.0816 14.3412 52.1366 14.7676C71.3359 15.1786 87.1825 31.0751 86.7157 50.8567C86.2722 69.7698 70.6903 85.178 51.421 85.209C31.8017 85.2477 15.9397 69.4441 15.9397 49.9339ZM51.2888 83.2005C69.7412 83.2005 84.6853 68.3584 84.7086 50.0735C84.7319 31.7964 69.9745 17.2333 52.2146 16.7758C33.4197 16.2873 17.9389 31.4008 17.9468 49.9185C17.9544 68.343 32.8361 83.2005 51.2888 83.2005Z" fill="#141820"/>
<path d="M51.29 83.2C32.8376 83.2 17.9559 68.3425 17.948 49.9102C17.9404 31.3925 33.4288 16.2868 52.2158 16.7675C69.976 17.225 84.7334 31.7881 84.7098 50.0652C84.6865 68.3579 69.7427 83.2 51.29 83.2ZM60.4852 35.6263C56.3155 30.7954 51.1191 29.5393 45.2767 30.4C39.7846 31.2064 35.8016 34.3781 32.8842 38.8987C29.9281 43.4739 29.3136 48.5377 30.1072 53.834C31.2741 61.596 38.1043 69.4282 47.1204 69.8158C51.3756 70.0019 55.3275 69.1333 58.6337 66.2487C59.2484 65.7137 59.8084 65.1244 60.4852 64.4652C60.4852 65.7059 60.5164 66.8615 60.4697 68.009C60.4464 68.5983 60.602 68.769 61.2086 68.7612C63.9469 68.7301 66.6852 68.7225 69.4159 68.769C70.0927 68.7768 70.1859 68.5597 70.1859 67.9626C70.1626 62.1777 70.1705 56.385 70.1705 50.6002C70.1705 44.3889 70.1705 38.1698 70.1705 31.9585C70.1705 31.571 70.2716 31.2064 69.6026 31.2142C66.7554 31.2528 63.9003 31.2453 61.0531 31.2218C60.5242 31.2142 60.4619 31.4313 60.4697 31.8732C60.5009 33.052 60.4852 34.2306 60.4852 35.6263Z" fill="#141820"/>
<path d="M49.9895 39.3489C56.2362 39.38 60.515 43.8234 60.4838 50.2518C60.4527 56.2848 55.9563 60.6659 49.9039 60.6505C43.7115 60.6273 39.2774 55.8892 39.4952 49.484C39.6819 43.6992 44.0772 39.3179 49.9895 39.3489Z" fill="#141820"/>
</svg>
