<svg width="442" height="150" viewBox="0 0 442 150" fill="none" xmlns="http://www.w3.org/2000/svg">
<path d="M68.1388 92.6885C67.5666 88.7642 64.6028 86.8706 61.7301 84.9426C58.8119 82.9805 55.7907 81.1327 53.6277 78.2919C50.5609 74.2768 49.382 69.8276 51.5107 65.0478C54.5547 58.2146 63.9162 56.287 69.97 61.3633C71.8123 62.9032 72.9798 63.1883 75.2115 62.1503C80.0522 59.8803 85.1448 61.272 88.8183 65.4243C93.7164 70.957 94.9869 77.4137 92.8695 84.3382C89.5049 95.2895 82.3181 102.841 71.1831 106.024C63.6415 108.18 56.2143 107.005 49.3364 103.183C38.2238 97.0005 30.9455 87.8288 28.7256 75.2577C25.4981 56.994 33.143 39.837 51.007 31.5553C68.6653 23.3648 85.7515 25.2811 101.178 37.1906C110.39 44.2976 115.288 54.2449 115.975 65.8007C117.177 85.992 107.85 100.548 90.5808 110.45C84.7557 113.792 78.2897 115.401 71.8355 117.021C67.9442 118.002 64.042 118.937 60.3111 120.466C59.0296 120.991 57.8164 121.641 56.7177 122.485C56.0426 123.01 55.5046 123.637 55.1729 124.424C54.8982 125.086 54.8294 125.702 55.4818 126.215C56.1683 126.751 56.443 126.055 56.8207 125.77C61.4786 122.359 66.7771 120.546 72.3962 119.53C75.9208 118.892 79.4686 118.664 82.9932 119.53C84.481 119.895 85.8431 120.523 86.9415 121.607C89.8027 124.413 89.196 128.645 85.614 130.835C83.1536 132.341 80.3957 133.071 77.5918 133.561C70.7481 134.748 63.9276 134.794 57.1869 132.854C56.6489 132.695 56.4776 132.877 56.3286 133.391C56.0881 134.178 56.2713 134.885 56.5232 135.581C56.8093 136.368 57.2899 137.052 57.8279 137.703C59.5558 139.779 59.7735 139.79 62.0394 138.524C66.9028 135.809 72.0528 134.52 77.6032 135.821C79.9264 136.368 81.8489 137.611 83.0164 139.768C84.3553 142.243 83.6684 144.228 81.0822 145.38C78.7821 146.406 76.3099 146.6 73.8381 146.635C69.2603 146.692 64.8201 146.019 60.6431 144.08C60.0592 143.806 59.7389 143.942 59.3384 144.319C57.9422 145.608 57.2785 147.125 57.8279 149.03C57.9194 149.35 57.9882 149.669 57.8848 150C55.9282 148.003 55.6421 145.802 57.1067 143.235C57.4844 142.574 57.4042 142.323 56.8207 141.866C54.2113 139.756 52.1399 137.303 52.1399 133.71C52.1399 131.006 52.1171 131.041 50.6753 128.805C48.89 126.044 49.382 123.306 51.0187 120.694C52.8037 117.865 55.5847 116.234 58.5144 114.808C63.3437 112.469 68.4708 110.94 73.552 109.309C81.7687 106.663 89.1504 102.647 95.2616 96.5101C102.402 89.3345 106.351 80.7218 106.442 70.5464C106.557 56.8229 97.9279 44.674 84.8359 40.3733C73.0368 36.5062 61.6499 37.3618 51.3732 44.7994C43.6945 50.3665 39.5057 58.1347 38.0065 67.455C35.5689 82.604 45.6055 95.8367 55.8594 101.039C62.0622 104.187 68.345 104.096 74.4102 100.856C82.7185 96.4071 87.3993 89.3686 88.1204 79.9689C88.4521 75.7367 86.8043 72.0408 83.9203 68.938C81.8147 66.6676 78.9535 66.1431 76.1154 67.341C75.4517 67.6261 75.3829 67.8428 75.6921 68.493C76.8935 71.0028 77.4543 73.6034 76.5618 76.3643C75.3829 79.9916 72.2131 82.0337 68.9172 81.258C65.9074 80.5506 64.1449 77.95 64.5914 74.8926C65.026 71.9037 66.4568 69.394 68.4134 67.1584C68.9286 66.5763 68.9742 66.2344 68.3679 65.6867C66.2505 63.7704 63.8361 62.6638 60.9406 63.0403C55.951 63.6905 53.2387 68.0367 54.5547 73.1016C55.3556 76.1817 57.2557 78.5089 59.5558 80.5851C61.387 82.2389 63.2981 83.8019 65.072 85.5129C66.983 87.3497 68.4134 89.483 68.2649 92.312C68.2075 92.3919 68.1619 92.54 68.1388 92.6885ZM62.6001 127.983C68.9974 128.234 75.3031 127.869 81.3683 125.519C74.8221 124.07 68.6425 125.451 62.6001 127.983ZM71.8469 70.1242C70.2333 71.5845 69.0772 73.227 68.5624 75.269C68.3678 76.0446 68.4366 76.7634 69.2489 77.2198C70.0156 77.6534 70.7595 77.6648 71.4806 77.1399C72.1558 76.6494 72.522 75.9651 72.7739 75.2005C73.3575 73.3868 72.7051 71.8011 71.8469 70.1242ZM64.5226 141.672C69.1004 142.711 73.3917 142.653 77.7289 141.49C76.1496 139.55 68.2417 139.961 64.5226 141.672Z" fill="#141820"/>
<path d="M228.953 62.3533C229.147 59.6383 229.398 56.9119 229.534 54.1738C230.256 39.7549 230.37 25.3243 230.325 10.8823C230.325 10.084 230.553 9.55907 231.183 9.09135C233.93 7.06067 236.905 7.24322 239.743 8.58955C243.622 10.4373 245.856 13.5973 245.89 18.0007C245.936 22.6892 245.157 27.3092 244.333 31.9064C242.995 39.3558 242.57 46.8846 242.262 54.4249C241.848 64.5434 241.392 74.662 241.016 84.7919C240.659 94.2488 240.112 103.705 240.157 113.174C240.191 120.475 240.499 127.764 242.376 134.883C242.661 135.966 242.961 137.073 243.451 138.065C243.865 138.909 243.736 139.491 243.212 140.187C241.483 142.548 238.919 143.301 236.229 142.126C234.113 141.202 232.372 139.788 231.035 137.917C230.359 136.981 230.028 135.977 229.983 134.78C229.914 132.635 229.648 130.491 229.443 128.038C227.646 129.966 226.058 131.654 224.284 133.16C220.94 136.012 217.346 138.499 212.943 139.274C203.992 140.848 193.624 137.734 187.937 127.433C185.178 122.437 183.942 117.03 183.748 111.383C183.221 95.8114 186.597 81.0275 193.098 66.9161C194.778 63.2656 196.99 59.9008 200.01 57.174C205.652 52.0636 212.381 51.2993 219.143 54.8699C222.566 56.6722 225.245 59.3872 228.106 61.8856C228.288 62.045 228.493 62.1935 228.687 62.342C228.687 62.3761 228.748 62.3533 228.953 62.3533ZM228.653 88.2026C228.748 85.1911 228.573 82.1909 227.783 79.2706C226.639 75.0271 224.899 71.0801 221.411 68.1825C217.061 64.5662 211.613 65.0225 207.905 69.232C206.682 70.6237 205.652 72.1523 204.896 73.8178C199.414 86.0012 196.507 98.7317 196.819 112.113C196.91 116.106 197.662 119.984 199.357 123.623C201.062 127.262 203.559 129.966 207.928 130.137C211.328 130.274 214.235 129.065 216.708 126.783C219.052 124.627 220.724 121.98 222.016 119.117C226.468 109.295 228.436 98.9374 228.653 88.2026Z" fill="#141820"/>
<path d="M428.807 133.434C424.4 136.229 419.917 138.203 415.016 139.149C403.72 141.351 393.584 138.921 385.104 131.084C379.508 125.905 379.059 118.445 383.558 112.273C387.163 107.322 392.152 104.048 397.463 101.197C402.201 98.6642 407.246 97.4209 412.66 97.5576C417.444 97.6716 422.227 97.5235 426.999 97.6261C428.42 97.6602 428.591 96.9759 428.602 95.9264C428.648 92.4241 428.522 88.9221 428.177 85.4314C427.846 82.0548 427.344 78.735 426.083 75.564C423.967 70.2366 420.122 67.5215 414.799 67.67C411.346 67.7609 408.656 69.5064 406.433 71.9476C402.087 76.7047 399.085 82.1574 398.276 88.6369C398.113 89.9147 398.185 91.2148 398.158 92.5153C398.113 94.6945 396.593 95.9719 394.431 95.6295C390.548 95.0137 386.715 90.5418 387.175 86.6975C388.261 77.4803 391.57 69.0959 397.543 61.9203C401.114 57.631 405.989 56.0797 411.562 56.3077C420.475 56.6842 428.028 60.1294 434.324 66.3009C438.948 70.841 441.212 76.4081 441.223 82.933C441.246 94.7399 441.394 106.558 441.501 118.365C441.558 124.879 441.649 131.381 441.706 137.895C441.729 140.005 440.824 141.26 438.788 141.888C436.809 142.503 434.837 142.401 432.857 141.773C430.809 141.123 428.545 138.26 428.807 135.887C428.876 135.157 428.807 134.404 428.807 133.434ZM407.957 129.088C414.366 128.997 419.799 126.544 424.434 122.232C426.68 120.156 427.994 117.555 428.488 114.532C429.161 110.38 427.664 107.939 423.473 107.254C415.829 106.011 408.481 107.049 401.604 110.722C399.386 111.908 397.543 113.574 396.547 115.924C394.477 120.84 395.449 125.198 400.654 127.582C402.98 128.655 405.404 129.134 407.957 129.088Z" fill="#141820"/>
<path d="M361.625 133.424C357.218 136.231 352.719 138.17 347.834 139.162C337.317 141.273 327.751 139.14 319.373 132.466C312.082 126.66 311.246 117.853 317.462 110.917C323.537 104.13 331.067 99.5441 340.189 97.8671C341.413 97.6392 342.697 97.6047 343.943 97.6047C349.106 97.582 354.266 97.5933 359.418 97.5933C361.386 97.5933 361.386 97.5933 361.408 95.5513C361.454 91.7528 361.283 87.9538 360.858 84.1894C360.493 80.9612 359.817 77.7899 358.548 74.7556C355.352 67.1809 346.093 65.1729 340.224 70.9907C334.479 76.6832 330.771 83.4252 331.01 91.7528C331.128 95.46 328.313 96.3954 325.555 95.118C321.466 93.2358 319.43 89.6994 320.129 85.2047C321.375 77.1282 324.373 69.7133 329.274 63.154C332.956 58.2144 338.039 56.0697 344.239 56.3208C352.64 56.6518 359.851 59.7432 366.044 65.2873C371.294 69.9985 374.007 75.8504 374.03 82.9574C374.064 95.0609 374.201 107.164 374.303 119.268C374.36 125.439 374.455 131.622 374.512 137.794C374.535 140.166 373.331 141.604 370.986 142.083C368.973 142.494 366.959 142.459 365.105 141.512C362.883 140.383 361.716 138.524 361.648 136.025C361.602 135.227 361.625 134.44 361.625 133.424ZM340.661 129.09C347.264 128.998 352.826 126.466 357.529 121.949C359.277 120.272 360.413 118.196 361.029 115.846C362.37 110.701 360.755 107.803 355.641 107.107C348.396 106.115 341.379 107.084 334.81 110.484C332.853 111.499 331.139 112.834 329.992 114.75C327.466 118.937 327.222 124.903 333.598 127.664C335.854 128.633 338.199 129.124 340.661 129.09Z" fill="#141820"/>
<path d="M279.886 139.721C272.368 139.629 266.908 138.5 262.216 134.918C257.398 131.245 254.891 126.146 253.462 120.442C251.745 113.563 251.608 106.571 252.25 99.5662C253.189 89.2651 255.544 79.2836 259.469 69.69C260.879 66.2448 262.641 62.9935 264.986 60.0732C269.142 54.917 274.404 53.3313 280.779 55.0083C287.28 56.7193 292.576 60.4269 297.5 64.7845C300.737 67.6593 303.586 70.8647 305.532 74.789C308.461 80.6981 307.948 86.6985 305.725 92.619C301.413 104.152 288.401 113.004 276.042 113.016C274.244 113.016 272.721 112.263 271.178 111.544C269.587 110.814 268.063 109.924 266.372 109.422C265.377 109.126 265.008 109.365 265.054 110.438C265.236 114.704 265.605 118.936 267.55 122.838C269.53 126.83 272.71 128.827 277.276 128.861C283.23 128.895 288.013 126.431 292.211 122.495C294.787 120.077 296.892 117.271 299.054 114.51C299.491 113.951 299.981 113.426 300.429 112.89C301.881 111.156 303.586 110.187 305.934 111.031C308.199 111.841 309.285 113.518 309.608 115.81C310.258 120.51 308.636 124.549 305.372 127.743C297.842 135.101 288.8 139.253 279.886 139.721ZM277.953 101.973C281.478 101.973 284.271 100.958 286.923 98.6993C294.947 91.8661 295.942 78.5307 289.009 70.6137C287.793 69.2336 286.364 68.1956 284.59 67.6593C280.354 66.3815 276.269 67.8191 273.34 71.9255C269.058 77.9146 267.068 84.6906 267.368 92.0142C267.584 97.8551 272.128 101.973 277.953 101.973Z" fill="#141820"/>
<path d="M173.995 64.2807C173.732 68.65 172.633 72.5515 171.797 76.5098C171.214 79.293 170.836 82.0879 170.836 84.9401C170.87 97.6706 170.882 110.402 170.836 123.133C170.825 126.966 171.569 130.661 172.461 134.357C172.965 136.433 171.637 138.441 169.486 138.555C163.661 138.841 158.351 136.433 158.328 128.745C158.27 105.918 158.305 83.0919 158.294 60.2538C158.294 59.5354 158.511 59.1703 159.14 58.8279C163.89 56.2727 168.261 57.2767 172.496 60.3451C173.926 61.349 174.235 62.912 173.995 64.2807Z" fill="#141820"/>
<path d="M166.8 25.4381C174.032 25.4381 178.999 31.6438 177.214 38.4769C176.378 41.671 174.193 43.2795 170.324 43.5419C165.323 43.8843 159.784 39.6521 159.017 34.7352C158.308 30.1838 160.105 25.4953 166.8 25.4381Z" fill="#141820"/>
<path d="M45.8827 0.0450665C46.7182 0.0908913 47.611 0.569967 48.1372 1.57395C50.6094 6.39918 52.8066 11.327 54.2142 16.5745C54.3859 17.2134 54.4087 17.8864 54.5231 18.548C54.6146 19.107 54.6606 19.6774 54.0653 19.9629C53.4703 20.2481 53.0011 19.8485 52.6234 19.4607C51.8681 18.6851 51.0555 17.9436 50.4377 17.054C47.5996 13.0271 45.0704 8.81766 42.9759 4.35713C41.9577 2.22382 43.3307 0.010982 45.8827 0.0450665Z" fill="#141820"/>
<path d="M12.6905 24.0945C13.3086 24.0491 13.8694 24.2543 14.3386 24.5967C19.8088 28.4293 25.3133 32.2282 30.1999 36.8028C30.6463 37.2247 31.5274 37.6583 31.1042 38.3884C30.6463 39.1754 29.8223 38.6278 29.1931 38.3884C22.8301 36.0381 16.948 32.7187 11.0427 29.456C9.887 28.8175 9.47478 27.3231 9.8984 26.0453C10.276 24.9046 11.4318 24.1059 12.6905 24.0945Z" fill="#141820"/>
<path d="M95.3323 0.000160147C97.461 0.000160147 98.9602 2.09939 98.01 4.00433C95.2293 9.57109 91.9676 14.853 87.951 19.6442C87.6303 20.0206 87.2641 20.2944 86.7607 20.0661C86.0855 19.7582 86.2801 19.1538 86.3944 18.6402C87.2413 14.8985 88.546 11.2939 89.9878 7.74605C90.8119 5.70401 91.7275 3.69644 92.6428 1.68848C93.158 0.58225 94.0736 -0.0112013 95.3323 0.000160147Z" fill="#141820"/>
<path d="M125.461 23.5003C126.948 23.5003 127.864 24.1278 128.356 25.3257C128.883 26.6259 128.551 27.8809 127.337 28.7592C125.918 29.7972 124.454 30.7671 122.977 31.7026C119.373 33.9612 115.836 36.3566 111.957 38.1362C111.613 38.296 111.27 38.4554 110.915 38.5812C110.538 38.7179 110.114 39.0031 109.794 38.524C109.519 38.1248 109.714 37.7257 109.954 37.3719C110.847 36.1055 111.899 34.9648 113.01 33.8927C116.305 30.6872 119.67 27.5499 123.183 24.5842C123.882 23.9907 124.602 23.4204 125.461 23.5003Z" fill="#141820"/>
<path d="M125.62 68.7081C125.322 68.6967 125.036 68.674 124.739 68.6626C124.338 68.6626 123.983 68.5827 123.812 68.1722C123.629 67.7272 123.8 67.3621 124.098 67.0425C124.853 66.2441 125.723 65.6052 126.696 65.1034C130.953 62.8902 135.313 60.894 139.857 59.3083C141.928 58.5895 143.644 59.8101 143.473 61.8294C143.404 62.6278 143.072 63.3466 142.34 63.6545C136.961 65.9817 131.399 67.7158 125.62 68.7081Z" fill="#141820"/>
<path d="M13.4586 66.8595C9.41884 66.6428 6.04278 66.3918 2.68953 65.8782C1.09914 65.6389 0.172107 64.886 0.0231748 63.6767C-0.182747 62.0343 1.00719 60.608 2.65532 60.7792C7.61074 61.3041 12.4856 62.2509 17.2579 63.6995C17.8875 63.8934 18.4482 64.2929 19.0432 64.6008C19.4782 64.8288 19.7871 65.1484 19.6842 65.6961C19.5926 66.1751 19.1921 66.3118 18.7913 66.4489C16.8229 67.1219 14.7975 66.8595 13.4586 66.8595Z" fill="#141820"/>
<path d="M62.5991 127.981C68.6415 125.449 74.8214 124.069 81.3673 125.518C75.3021 127.856 68.9964 128.233 62.5991 127.981Z" fill="#141820"/>
<path d="M71.8464 70.1219C72.7046 71.7875 73.3683 73.3732 72.762 75.1982C72.5101 75.9628 72.1438 76.6585 71.4687 77.1376C70.7362 77.6625 70.0037 77.6625 69.237 77.2175C68.4361 76.7612 68.356 76.031 68.5505 75.2668C69.0767 73.2247 70.2328 71.5822 71.8464 70.1219Z" fill="#141820"/>
<path d="M64.5212 141.671C68.2408 139.96 76.1486 139.561 77.7276 141.489C73.3903 142.652 69.099 142.698 64.5212 141.671Z" fill="#141820"/>
</svg>
