<svg width="170" height="48" viewBox="0 0 170 48" fill="none" xmlns="http://www.w3.org/2000/svg">
<path d="M27.4368 11.9175C22.0162 12.6142 10.5935 9.6156 9.89678 4.19479L9.81651 4.20511C10.3741 8.54367 12.6324 12.483 16.0944 15.1566C19.5565 17.8302 23.9388 19.019 28.2774 18.4616C30.8805 18.127 33.51 18.8402 35.5874 20.4443C37.6648 22.0484 39.0197 24.4121 39.3543 27.0152C39.6895 29.6182 38.9767 32.2481 37.373 34.3256C35.7692 36.4034 33.4058 37.7587 30.8028 38.0939C28.1995 38.4289 25.5699 37.7161 23.4922 36.1124C21.4146 34.5086 20.0591 32.1452 19.724 29.5422C19.4479 27.3938 18.7513 25.321 17.674 23.4419C16.5967 21.5629 15.1599 19.9143 13.4455 18.5906C11.7311 17.2668 9.77284 16.2936 7.68237 15.7267C5.59192 15.1597 3.41025 15.0101 1.26196 15.2863L1.27219 15.3659C6.69198 14.6693 12.4811 24.9578 13.18 30.3791L13.1789 30.3792C13.5948 33.6148 14.9607 36.6543 17.1039 39.1135C19.2472 41.5727 22.0715 43.3412 25.2198 44.1952C28.3682 45.0493 31.699 44.9507 34.7913 43.9116C37.8835 42.8727 40.5982 40.9401 42.5922 38.3584C44.5859 35.7765 45.7695 32.6615 45.9931 29.4069C46.2167 26.1525 45.47 22.905 43.8479 20.0748C42.2257 17.2446 39.8007 14.9591 36.8796 13.5071C33.9583 12.0551 30.6722 11.502 27.4368 11.9175Z" fill="url(#paint0_linear_2576_4)"/>
<path d="M57.7873 14.0958V33H53.9956V14.0958H57.7873ZM69.8481 17.7792C71.6356 17.7792 73.08 18.3479 74.1814 19.4854C75.2828 20.6049 75.8335 22.1757 75.8335 24.1979V33H72.0418V24.7125C72.0418 23.5208 71.7439 22.609 71.1481 21.9771C70.5522 21.3271 69.7397 21.0021 68.7106 21.0021C67.6633 21.0021 66.8328 21.3271 66.2189 21.9771C65.6231 22.609 65.3252 23.5208 65.3252 24.7125V33H61.5335V17.9958H65.3252V19.8646C65.8307 19.2146 66.4717 18.709 67.2481 18.3479C68.0425 17.9687 68.9092 17.7792 69.8481 17.7792ZM86.3183 21.1104H83.6912V33H79.8454V21.1104H78.1392V17.9958H79.8454V17.2375C79.8454 15.3958 80.369 14.0417 81.4162 13.175C82.4635 12.3083 84.0433 11.9021 86.1558 11.9563V15.1521C85.235 15.134 84.594 15.2875 84.2329 15.6125C83.8718 15.9375 83.6912 16.5243 83.6912 17.3729V17.9958H86.3183V21.1104ZM90.6984 16.2083C90.0304 16.2083 89.4706 16.0007 89.0193 15.5854C88.5859 15.1521 88.3693 14.6194 88.3693 13.9875C88.3693 13.3556 88.5859 12.8319 89.0193 12.4167C89.4706 11.9833 90.0304 11.7667 90.6984 11.7667C91.3665 11.7667 91.9172 11.9833 92.3505 12.4167C92.8019 12.8319 93.0276 13.3556 93.0276 13.9875C93.0276 14.6194 92.8019 15.1521 92.3505 15.5854C91.9172 16.0007 91.3665 16.2083 90.6984 16.2083ZM92.5672 17.9958V33H88.7755V17.9958H92.5672ZM104.628 17.7792C106.415 17.7792 107.86 18.3479 108.961 19.4854C110.063 20.6049 110.613 22.1757 110.613 24.1979V33H106.822V24.7125C106.822 23.5208 106.524 22.609 105.928 21.9771C105.332 21.3271 104.52 21.0021 103.49 21.0021C102.443 21.0021 101.613 21.3271 100.999 21.9771C100.403 22.609 100.105 23.5208 100.105 24.7125V33H96.3134V17.9958H100.105V19.8646C100.61 19.2146 101.251 18.709 102.028 18.3479C102.822 17.9687 103.689 17.7792 104.628 17.7792ZM116.142 16.2083C115.474 16.2083 114.914 16.0007 114.463 15.5854C114.029 15.1521 113.813 14.6194 113.813 13.9875C113.813 13.3556 114.029 12.8319 114.463 12.4167C114.914 11.9833 115.474 11.7667 116.142 11.7667C116.81 11.7667 117.361 11.9833 117.794 12.4167C118.245 12.8319 118.471 13.3556 118.471 13.9875C118.471 14.6194 118.245 15.1521 117.794 15.5854C117.361 16.0007 116.81 16.2083 116.142 16.2083ZM118.011 17.9958V33H114.219V17.9958H118.011ZM125.223 29.8854H131.913V33H120.917V29.9396L127.471 21.1104H120.944V17.9958H131.832V21.0563L125.223 29.8854ZM133.874 25.4437C133.874 23.9271 134.172 22.5819 134.768 21.4083C135.381 20.2347 136.203 19.3319 137.232 18.7C138.279 18.0681 139.444 17.7521 140.726 17.7521C141.845 17.7521 142.82 17.9778 143.651 18.4292C144.5 18.8806 145.177 19.4493 145.682 20.1354V17.9958H149.501V33H145.682V30.8063C145.195 31.5104 144.518 32.0972 143.651 32.5667C142.802 33.0181 141.818 33.2438 140.699 33.2438C139.435 33.2438 138.279 32.9188 137.232 32.2688C136.203 31.6188 135.381 30.7069 134.768 29.5333C134.172 28.3417 133.874 26.9785 133.874 25.4437ZM145.682 25.4979C145.682 24.5771 145.502 23.7917 145.14 23.1417C144.779 22.4736 144.292 21.9681 143.678 21.625C143.064 21.2639 142.405 21.0833 141.701 21.0833C140.997 21.0833 140.347 21.2549 139.751 21.5979C139.155 21.941 138.668 22.4465 138.288 23.1146C137.927 23.7646 137.747 24.541 137.747 25.4437C137.747 26.3465 137.927 27.141 138.288 27.8271C138.668 28.4951 139.155 29.0097 139.751 29.3708C140.365 29.7319 141.015 29.9125 141.701 29.9125C142.405 29.9125 143.064 29.741 143.678 29.3979C144.292 29.0368 144.779 28.5312 145.14 27.8812C145.502 27.2132 145.682 26.4188 145.682 25.4979ZM155.127 16.2083C154.459 16.2083 153.899 16.0007 153.448 15.5854C153.015 15.1521 152.798 14.6194 152.798 13.9875C152.798 13.3556 153.015 12.8319 153.448 12.4167C153.899 11.9833 154.459 11.7667 155.127 11.7667C155.795 11.7667 156.346 11.9833 156.779 12.4167C157.231 12.8319 157.456 13.3556 157.456 13.9875C157.456 14.6194 157.231 15.1521 156.779 15.5854C156.346 16.0007 155.795 16.2083 155.127 16.2083ZM156.996 17.9958V33H153.204V17.9958H156.996Z" fill="white"/>
<path d="M169.498 26.4893H164V31.9871H169.498V26.4893Z" fill="#3BAAFB"/>
<defs>
<linearGradient id="paint0_linear_2576_4" x1="16.3029" y1="9.70576" x2="49.29" y2="47.6409" gradientUnits="userSpaceOnUse">
<stop stop-color="#57B8FF"/>
<stop offset="0.940625" stop-color="#038EF2"/>
<stop offset="1" stop-color="white" stop-opacity="0"/>
</linearGradient>
</defs>
</svg>
