<svg width="170" height="49" viewBox="0 0 170 49" fill="none" xmlns="http://www.w3.org/2000/svg">
<path d="M27.4369 12.3082C22.0163 13.0049 10.5936 10.0063 9.8969 4.58545L9.81664 4.59577C10.3742 8.93433 12.6325 12.8737 16.0945 15.5473C19.5566 18.2209 23.9389 19.4097 28.2775 18.8523C30.8806 18.5177 33.5101 19.2309 35.5875 20.835C37.6649 22.4391 39.0198 24.8028 39.3544 27.4059C39.6896 30.0089 38.9768 32.6388 37.3731 34.7163C35.7693 36.7941 33.4059 38.1494 30.8029 38.4846C28.1996 38.8196 25.57 38.1068 23.4923 36.5031C21.4147 34.8993 20.0592 32.5359 19.7241 29.9329C19.448 27.7845 18.7514 25.7117 17.6741 23.8326C16.5968 21.9536 15.16 20.305 13.4456 18.9813C11.7312 17.6575 9.77297 16.6843 7.6825 16.1174C5.59204 15.5504 3.41037 15.4008 1.26208 15.677L1.27232 15.7566C6.6921 15.06 12.4812 25.3485 13.1801 30.7698L13.179 30.7699C13.5949 34.0055 14.9608 37.045 17.104 39.5042C19.2473 41.9634 22.0716 43.7319 25.2199 44.5859C28.3683 45.44 31.6991 45.3414 34.7914 44.3023C37.8836 43.2634 40.5983 41.3308 42.5923 38.7491C44.586 36.1672 45.7696 33.0522 45.9932 29.7976C46.2168 26.5432 45.4701 23.2957 43.848 20.4655C42.2258 17.6353 39.8008 15.3498 36.8797 13.8978C33.9584 12.4458 30.6723 11.8927 27.4369 12.3082Z" fill="url(#paint0_linear_2510_310)"/>
<path d="M57.7872 14.4863V33.3905H53.9955V14.4863H57.7872ZM69.848 18.1697C71.6355 18.1697 73.0799 18.7384 74.1813 19.8759C75.2827 20.9954 75.8334 22.5662 75.8334 24.5884V33.3905H72.0417V25.103C72.0417 23.9113 71.7438 22.9995 71.148 22.3676C70.5521 21.7176 69.7396 21.3926 68.7105 21.3926C67.6632 21.3926 66.8327 21.7176 66.2188 22.3676C65.623 22.9995 65.3251 23.9113 65.3251 25.103V33.3905H61.5334V18.3863H65.3251V20.2551C65.8306 19.6051 66.4716 19.0995 67.248 18.7384C68.0424 18.3592 68.9091 18.1697 69.848 18.1697ZM86.3182 21.5009H83.6911V33.3905H79.8453V21.5009H78.1391V18.3863H79.8453V17.628C79.8453 15.7863 80.3689 14.4322 81.4161 13.5655C82.4634 12.6988 84.0432 12.2926 86.1557 12.3468V15.5426C85.2349 15.5245 84.5939 15.678 84.2328 16.003C83.8717 16.328 83.6911 16.9148 83.6911 17.7634V18.3863H86.3182V21.5009ZM90.6983 16.5988C90.0303 16.5988 89.4705 16.3912 89.0192 15.9759C88.5858 15.5426 88.3692 15.0099 88.3692 14.378C88.3692 13.7461 88.5858 13.2224 89.0192 12.8072C89.4705 12.3738 90.0303 12.1572 90.6983 12.1572C91.3664 12.1572 91.9171 12.3738 92.3504 12.8072C92.8018 13.2224 93.0275 13.7461 93.0275 14.378C93.0275 15.0099 92.8018 15.5426 92.3504 15.9759C91.9171 16.3912 91.3664 16.5988 90.6983 16.5988ZM92.5671 18.3863V33.3905H88.7754V18.3863H92.5671ZM104.628 18.1697C106.415 18.1697 107.86 18.7384 108.961 19.8759C110.063 20.9954 110.613 22.5662 110.613 24.5884V33.3905H106.822V25.103C106.822 23.9113 106.524 22.9995 105.928 22.3676C105.332 21.7176 104.52 21.3926 103.49 21.3926C102.443 21.3926 101.613 21.7176 100.999 22.3676C100.403 22.9995 100.105 23.9113 100.105 25.103V33.3905H96.3133V18.3863H100.105V20.2551C100.61 19.6051 101.251 19.0995 102.028 18.7384C102.822 18.3592 103.689 18.1697 104.628 18.1697ZM116.142 16.5988C115.474 16.5988 114.914 16.3912 114.463 15.9759C114.029 15.5426 113.813 15.0099 113.813 14.378C113.813 13.7461 114.029 13.2224 114.463 12.8072C114.914 12.3738 115.474 12.1572 116.142 12.1572C116.81 12.1572 117.361 12.3738 117.794 12.8072C118.245 13.2224 118.471 13.7461 118.471 14.378C118.471 15.0099 118.245 15.5426 117.794 15.9759C117.361 16.3912 116.81 16.5988 116.142 16.5988ZM118.011 18.3863V33.3905H114.219V18.3863H118.011ZM125.223 30.2759H131.913V33.3905H120.917V30.3301L127.471 21.5009H120.944V18.3863H131.832V21.4468L125.223 30.2759ZM133.874 25.8342C133.874 24.3176 134.172 22.9724 134.768 21.7988C135.381 20.6252 136.203 19.7224 137.232 19.0905C138.279 18.4586 139.444 18.1426 140.726 18.1426C141.845 18.1426 142.82 18.3683 143.651 18.8197C144.5 19.2711 145.177 19.8398 145.682 20.5259V18.3863H149.501V33.3905H145.682V31.1968C145.195 31.9009 144.518 32.4877 143.651 32.9572C142.802 33.4086 141.818 33.6343 140.699 33.6343C139.435 33.6343 138.279 33.3093 137.232 32.6593C136.203 32.0093 135.381 31.0974 134.768 29.9238C134.172 28.7322 133.874 27.369 133.874 25.8342ZM145.682 25.8884C145.682 24.9676 145.502 24.1822 145.14 23.5322C144.779 22.8641 144.292 22.3586 143.678 22.0155C143.064 21.6544 142.405 21.4738 141.701 21.4738C140.997 21.4738 140.347 21.6454 139.751 21.9884C139.155 22.3315 138.668 22.837 138.288 23.5051C137.927 24.1551 137.747 24.9315 137.747 25.8342C137.747 26.737 137.927 27.5315 138.288 28.2176C138.668 28.8856 139.155 29.4002 139.751 29.7613C140.365 30.1224 141.015 30.303 141.701 30.303C142.405 30.303 143.064 30.1315 143.678 29.7884C144.292 29.4273 144.779 28.9217 145.14 28.2717C145.502 27.6037 145.682 26.8093 145.682 25.8884ZM155.127 16.5988C154.459 16.5988 153.899 16.3912 153.448 15.9759C153.015 15.5426 152.798 15.0099 152.798 14.378C152.798 13.7461 153.015 13.2224 153.448 12.8072C153.899 12.3738 154.459 12.1572 155.127 12.1572C155.795 12.1572 156.346 12.3738 156.779 12.8072C157.231 13.2224 157.456 13.7461 157.456 14.378C157.456 15.0099 157.231 15.5426 156.779 15.9759C156.346 16.3912 155.795 16.5988 155.127 16.5988ZM156.996 18.3863V33.3905H153.204V18.3863H156.996Z" fill="white"/>
<path d="M169.498 26.8799H164V32.3777H169.498V26.8799Z" fill="#3BAAFB"/>
<defs>
<linearGradient id="paint0_linear_2510_310" x1="16.303" y1="10.0964" x2="49.2901" y2="48.0316" gradientUnits="userSpaceOnUse">
<stop stop-color="#57B8FF"/>
<stop offset="0.940625" stop-color="#038EF2"/>
<stop offset="1" stop-color="white" stop-opacity="0"/>
</linearGradient>
</defs>
</svg>
